<svg width="24" height="24" viewBox="0 0 24 24" fill="none" xmlns="http://www.w3.org/2000/svg">
<rect width="24" height="24" rx="12" fill="#FF7276" fill-opacity="0.1"/>
<path d="M9.33333 9.33341H8.13346C7.38673 9.33341 7.01308 9.33341 6.72786 9.47874C6.47698 9.60657 6.27316 9.8104 6.14532 10.0613C6 10.3465 6 10.7201 6 11.4669V15.2002C6 15.9469 6 16.3201 6.14532 16.6053C6.27316 16.8562 6.47698 17.0604 6.72786 17.1882C7.0128 17.3334 7.386 17.3334 8.13127 17.3334H15.8687C16.614 17.3334 16.9867 17.3334 17.2716 17.1882C17.5225 17.0604 17.727 16.8562 17.8548 16.6053C18 16.3204 18 15.9477 18 15.2025V11.4647C18 10.7194 18 10.3462 17.8548 10.0613C17.727 9.8104 17.5225 9.60657 17.2716 9.47874C16.9864 9.33341 16.6135 9.33341 15.8668 9.33341H14.6667M9.33333 9.33341H14.6667M9.33333 9.33341C9.33333 7.86066 10.5272 6.66675 12 6.66675C13.4728 6.66675 14.6667 7.86066 14.6667 9.33341" stroke="#B55154" stroke-width="2" stroke-linecap="round" stroke-linejoin="round"/>
</svg>
